<svg xmlns="http://www.w3.org/2000/svg" width="1024" height="1024" viewBox="0 0 1024 1024"><polygon points="65.63 744.47 191.26 685.89 191.26 972.69 282.58 972.69 282.58 643.31 375.29 600.08 375.29 972.69 466.61 972.69 466.61 557.5 559.28 512.01 559.28 972.7 650.6 972.7 650.6 471.7 743.27 428.49 743.27 972.71 834.59 972.71 834.59 385.9 991.86 312.57 953.26 229.8 834.59 285.14 834.59 51.33 743.27 51.33 743.27 327.72 650.6 370.94 650.6 51.33 559.28 51.33 559.28 413.52 466.61 456.74 466.61 51.31 375.29 51.31 375.29 499.32 282.58 542.55 282.58 51.31 191.26 51.31 191.26 585.13 27.04 661.71 65.63 744.47" style="fill:#bd4632"/></svg>